HIERARCHY
ROOT reference
{
  OFFSET 0 0 0
  CHANNELS 6 Xposition Yposition Zposition Zrotation Xrotation Yrotation
  JOINT Hips
  {
    OFFSET 339.145 90.8604 236.464
    CHANNELS 3 Zrotation Xrotation Yrotation
    JOINT RightUpLeg
    {
      OFFSET -9.24113 -1.522 -0.0337757
      CHANNELS 3 Zrotation Xrotation Yrotation
      JOINT RightLeg
      {
        OFFSET 0.0344394 -41.8985 0.100154
        CHANNELS 3 Zrotation Xrotation Yrotation
        JOINT RightFoot
        {
          OFFSET -0.415571 -42.0751 0.023027
          CHANNELS 3 Zrotation Xrotation Yrotation
          End Site
          {
            OFFSET 0 -7.69 17.5
          }
        }
      }
    }
    JOINT LeftUpLeg
    {
      OFFSET 9.30897 -1.67379 -0.0291548
      CHANNELS 3 Zrotation Xrotation Yrotation
      JOINT LeftLeg
      {
        OFFSET 0.0832755 -41.864 -0.14338
        CHANNELS 3 Zrotation Xrotation Yrotation
        JOINT LeftFoot
        {
          OFFSET 0.17151 -41.5225 0.735469
          CHANNELS 3 Zrotation Xrotation Yrotation
          End Site
          {
            OFFSET 0 -7.69 17.5
          }
        }
      }
    }
    JOINT Spine
    {
      OFFSET 0.00853273 14.2903 0.0777264
      CHANNELS 3 Zrotation Xrotation Yrotation
      JOINT Spine1
      {
        OFFSET 0.0173944 9.71323 0.029081
        CHANNELS 3 Zrotation Xrotation Yrotation
        JOINT Spine2
        {
          OFFSET 0.0412483 10.1247 -0.0145163
          CHANNELS 3 Zrotation Xrotation Yrotation
          JOINT Spine3
          {
            OFFSET 0.0279063 9.71793 0.00755232
            CHANNELS 3 Zrotation Xrotation Yrotation
            JOINT Neck
            {
              OFFSET 0.0852486 10.3712 0.0268485
              CHANNELS 3 Zrotation Xrotation Yrotation
              JOINT Head
              {
                OFFSET 0.0739267 9.48251 0.0332551
                CHANNELS 3 Zrotation Xrotation Yrotation
                End Site
                {
                  OFFSET 0 15.95 0
                }
              }
            }
            JOINT RightShoulder
            {
              OFFSET -3.14957 6.95772 0.0300988
              CHANNELS 3 Zrotation Xrotation Yrotation
              JOINT RightArm
              {
                OFFSET -12.7513 0.0411148 0.0791701
                CHANNELS 3 Zrotation Xrotation Yrotation
                JOINT RightForeArm
                {
                  OFFSET -26.4959 0.0361336 0.259434
                  CHANNELS 3 Zrotation Xrotation Yrotation
                  JOINT RightHand
                  {
                    OFFSET -25.9829 -0.0837334 0.191464
                    CHANNELS 3 Zrotation Xrotation Yrotation
                    JOINT RightHandThumb1
                    {
                      OFFSET -2.48905 0.190105 3.12053
                      CHANNELS 3 Zrotation Xrotation Yrotation
                      JOINT RightHandThumb2
                      {
                        OFFSET -3.68274 0 0
                        CHANNELS 3 Zrotation Xrotation Yrotation
                        JOINT RightHandThumb3
                        {
                          OFFSET -2.55832 0 0
                          CHANNELS 3 Zrotation Xrotation Yrotation
                          End Site
                          {
                            OFFSET -2.194 0 0
                          }
                        }
                      }
                    }
                    JOINT RightInHandIndex
                    {
                      OFFSET -3.22368 0.508421 1.97842
                      CHANNELS 3 Zrotation Xrotation Yrotation
                      JOINT RightHandIndex1
                      {
                        OFFSET -5.21684 -0.091368 0.999158
                        CHANNELS 3 Zrotation Xrotation Yrotation
                        JOINT RightHandIndex2
                        {
                          OFFSET -3.61937 0 0
                          CHANNELS 3 Zrotation Xrotation Yrotation
                          JOINT RightHandIndex3
                          {
                            OFFSET -2.0521 0 0
                            CHANNELS 3 Zrotation Xrotation Yrotation
                            End Site
                            {
                              OFFSET -1.805 0 0
                            }
                          }
                        }
                      }
                    }
                    JOINT RightInHandMiddle
                    {
                      OFFSET -3.38211 0.517263 0.756737
                      CHANNELS 3 Zrotation Xrotation Yrotation
                      JOINT RightHandMiddle1
                      {
                        OFFSET -5.17411 -0.084 0.313895
                        CHANNELS 3 Zrotation Xrotation Yrotation
                        JOINT RightHandMiddle2
                        {
                          OFFSET -3.94947 0 0
                          CHANNELS 3 Zrotation Xrotation Yrotation
                          JOINT RightHandMiddle3
                          {
                            OFFSET -2.47579 0 0
                            CHANNELS 3 Zrotation Xrotation Yrotation
                            End Site
                            {
                              OFFSET -1.975 0 0
                            }
                          }
                        }
                      }
                    }
                    JOINT RightInHandRing
                    {
                      OFFSET -3.36516 0.537895 -0.128947
                      CHANNELS 3 Zrotation Xrotation Yrotation
                      JOINT RightHandRing1
                      {
                        OFFSET -4.63474 -0.022105 -0.478947
                        CHANNELS 3 Zrotation Xrotation Yrotation
                        JOINT RightHandRing2
                        {
                          OFFSET -3.44238 0 0
                          CHANNELS 3 Zrotation Xrotation Yrotation
                          JOINT RightHandRing3
                          {
                            OFFSET -2.3881 0 0
                            CHANNELS 3 Zrotation Xrotation Yrotation
                            End Site
                            {
                              OFFSET -1.857 0 0
                            }
                          }
                        }
                      }
                    }
                    JOINT RightInHandPinky
                    {
                      OFFSET -3.16105 0.469368 -1.20179
                      CHANNELS 3 Zrotation Xrotation Yrotation
                      JOINT RightHandPinky1
                      {
                        OFFSET -4.14105 -0.022105 -1.09053
                        CHANNELS 3 Zrotation Xrotation Yrotation
                        JOINT RightHandPinky2
                        {
                          OFFSET -2.75653 0 0
                          CHANNELS 3 Zrotation Xrotation Yrotation
                          JOINT RightHandPinky3
                          {
                            OFFSET -1.74189 0 0
                            CHANNELS 3 Zrotation Xrotation Yrotation
                            End Site
                            {
                              OFFSET -1.645 0 0
                            }
                          }
                        }
                      }
                    }
                  }
                }
              }
            }
            JOINT LeftShoulder
            {
              OFFSET 3.25273 6.91522 -0.0295735
              CHANNELS 3 Zrotation Xrotation Yrotation
              JOINT LeftArm
              {
                OFFSET 12.7785 0.0134102 -0.0213482
                CHANNELS 3 Zrotation Xrotation Yrotation
                JOINT LeftForeArm
                {
                  OFFSET 26.5044 -0.0446277 0.0404034
                  CHANNELS 3 Zrotation Xrotation Yrotation
                  JOINT LeftHand
                  {
                    OFFSET 25.9955 -0.0467726 -0.0166804
                    CHANNELS 3 Zrotation Xrotation Yrotation
                    JOINT LeftHandThumb1
                    {
                      OFFSET 2.48905 0.190105 3.12053
                      CHANNELS 3 Zrotation Xrotation Yrotation
                      JOINT LeftHandThumb2
                      {
                        OFFSET 3.68274 0 0
                        CHANNELS 3 Zrotation Xrotation Yrotation
                        JOINT LeftHandThumb3
                        {
                          OFFSET 2.55832 0 0
                          CHANNELS 3 Zrotation Xrotation Yrotation
                          End Site
                          {
                            OFFSET 2.194 0 0
                          }
                        }
                      }
                    }
                    JOINT LeftInHandIndex
                    {
                      OFFSET 3.22368 0.508421 1.97842
                      CHANNELS 3 Zrotation Xrotation Yrotation
                      JOINT LeftHandIndex1
                      {
                        OFFSET 5.21684 -0.091368 0.999158
                        CHANNELS 3 Zrotation Xrotation Yrotation
                        JOINT LeftHandIndex2
                        {
                          OFFSET 3.61937 0 0
                          CHANNELS 3 Zrotation Xrotation Yrotation
                          JOINT LeftHandIndex3
                          {
                            OFFSET 2.0521 0 0
                            CHANNELS 3 Zrotation Xrotation Yrotation
                            End Site
                            {
                              OFFSET 1.805 0 0
                            }
                          }
                        }
                      }
                    }
                    JOINT LeftInHandMiddle
                    {
                      OFFSET 3.38211 0.517263 0.756737
                      CHANNELS 3 Zrotation Xrotation Yrotation
                      JOINT LeftHandMiddle1
                      {
                        OFFSET 5.17411 -0.084 0.313895
                        CHANNELS 3 Zrotation Xrotation Yrotation
                        JOINT LeftHandMiddle2
                        {
                          OFFSET 3.94947 0 0
                          CHANNELS 3 Zrotation Xrotation Yrotation
                          JOINT LeftHandMiddle3
                          {
                            OFFSET 2.47579 0 0
                            CHANNELS 3 Zrotation Xrotation Yrotation
                            End Site
                            {
                              OFFSET 1.975 0 0
                            }
                          }
                        }
                      }
                    }
                    JOINT LeftInHandRing
                    {
                      OFFSET 3.36516 0.537895 -0.128947
                      CHANNELS 3 Zrotation Xrotation Yrotation
                      JOINT LeftHandRing1
                      {
                        OFFSET 4.63474 -0.022105 -0.478947
                        CHANNELS 3 Zrotation Xrotation Yrotation
                        JOINT LeftHandRing2
                        {
                          OFFSET 3.44238 0 0
                          CHANNELS 3 Zrotation Xrotation Yrotation
                          JOINT LeftHandRing3
                          {
                            OFFSET 2.3881 0 0
                            CHANNELS 3 Zrotation Xrotation Yrotation
                            End Site
                            {
                              OFFSET 1.857 0 0
                            }
                          }
                        }
                      }
                    }
                    JOINT LeftInHandPinky
                    {
                      OFFSET 3.16105 0.469368 -1.20179
                      CHANNELS 3 Zrotation Xrotation Yrotation
                      JOINT LeftHandPinky1
                      {
                        OFFSET 4.14105 -0.022105 -1.09053
                        CHANNELS 3 Zrotation Xrotation Yrotation
                        JOINT LeftHandPinky2
                        {
                          OFFSET 2.75653 0 0
                          CHANNELS 3 Zrotation Xrotation Yrotation
                          JOINT LeftHandPinky3
                          {
                            OFFSET 1.74189 0 0
                            CHANNELS 3 Zrotation Xrotation Yrotation
                            End Site
                            {
                              OFFSET 1.645 0 0
                            }
                          }
                        }
                      }
                    }
                  }
                }
              }
            }
          }
        }
      }
    }
  }
}
MOTION
Frames: 2
Frame Time: 0.00833333
4.500000000000000000e+02 0.000000000000000000e+00 0.000000000000000000e+00 0.000000000000000000e+00 0.000000000000000000e+00 0.000000000000000000e+00 1.767787535523263260e-04 -3.310367925724339716e-02 -1.286982288890504700e-01 9.414460307003444731e-03 1.951098207130842060e-03 1.403777155246607178e-01 6.550433143353630305e-02 -8.733713424855044094e-03 -4.223475418433952910e-01 7.201802177168834494e-03 3.681825358348318755e-02 3.997257883678856927e-01 1.299298007461091031e-01 9.186888661914509313e-02 3.795876627281252746e-01 1.292033526129027499e-01 -1.978817898814116960e-01 -1.383619464028918930e-02 -1.442428165355971181e-01 1.705425328106396632e-01 -2.055843796417488600e-01 -1.005132417993134936e-01 5.048463862654079676e-03 1.927996190469855042e-01 -2.185772763073006927e-02 6.183683359679711944e-03 4.549204892343012424e-02 -3.584930462984155242e-02 9.078540274788268055e-03 7.289539116297605315e-02 1.102351001790489866e-05 6.211336917233262027e-03 -8.376124732122501929e-03 1.582631583518525134e-02 1.683142115806251018e-02 -6.929650307233031770e-02 -8.900420907964178702e-03 9.256856132688243144e-03 -9.446171753412133110e-02 1.041932128285925629e-01 -1.106894032650951321e-01 -3.639278156841873613e-01 -1.099795006917433059e-02 3.807544413879252465e-01 -7.811885286739833623e-02 -1.072990244007339333e+00 6.051386257322052264e-01 -1.206214547334796938e+00 -5.694037078212997871e-01 4.148903276255477487e-03 -1.416448661949950116e+00 0.000000000000000000e+00 0.000000000000000000e+00 0.000000000000000000e+00 4.352805702867551011e-15 5.520405215760028806e-16 0.000000000000000000e+00 1.413744311974441129e-15 -2.441636804075218119e-15 0.000000000000000000e+00 1.824709398531806529e-15 -1.253086605095055013e-15 1.526641014882579147e-15 0.000000000000000000e+00 0.000000000000000000e+00 0.000000000000000000e+00 0.000000000000000000e+00 -1.270724159818206125e-15 -1.499626004539099737e-15 0.000000000000000000e+00 2.218563383030647094e-15 5.130584201106047548e-15 1.824709398531806529e-15 -1.253086605095055013e-15 1.526641014882579147e-15 0.000000000000000000e+00 2.678540409273750453e-15 -5.651511769763734464e-15 0.000000000000000000e+00 -5.701046383232107567e-16 -1.056233675428653621e-14 0.000000000000000000e+00 2.849130657618508693e-15 9.666489266086262997e-15 1.824709398531806529e-15 -1.253086605095055013e-15 1.526641014882579147e-15 0.000000000000000000e+00 0.000000000000000000e+00 0.000000000000000000e+00 0.000000000000000000e+00 -1.231178417620607079e-15 -9.071350935379577784e-15 0.000000000000000000e+00 3.481992626414862981e-15 8.457849091567073896e-15 1.824709398531806529e-15 -1.253086605095055013e-15 1.526641014882579147e-15 0.000000000000000000e+00 0.000000000000000000e+00 0.000000000000000000e+00 0.000000000000000000e+00 -6.074655956895193286e-15 -1.896679480110288732e-14 0.000000000000000000e+00 2.540866138725702210e-15 1.358427830561850899e-14 2.225243077316588214e-02 8.483154511994850377e-02 4.298389234101731571e-01 2.952124682372306297e-01 1.177415854032006909e-01 -4.827937743046777919e-01 -1.972023391604339482e-01 -2.834272997329430610e-01 -3.982847487523221708e-01 -2.324965330345876990e-01 -5.720534445449366734e-01 -4.394476601434343932e-01 0.000000000000000000e+00 0.000000000000000000e+00 0.000000000000000000e+00 -5.824244810111630991e-15 -1.074099992862143205e-15 0.000000000000000000e+00 2.877961682406174089e-15 2.734189428667636775e-16 0.000000000000000000e+00 -6.498464504941420243e-16 -3.129990746013708616e-16 6.574083861661692918e-16 0.000000000000000000e+00 0.000000000000000000e+00 0.000000000000000000e+00 0.000000000000000000e+00 9.149525031970369292e-17 6.241961730139496491e-15 0.000000000000000000e+00 -4.831199619303220818e-16 -4.600076324366979619e-15 -6.498464504941420243e-16 -3.129990746013708616e-16 6.574083861661692918e-16 0.000000000000000000e+00 1.007067167952462542e-15 4.397346474293603652e-15 0.000000000000000000e+00 1.406004123520612675e-15 5.502238164295904942e-15 0.000000000000000000e+00 3.853912075900037205e-16 9.214082194890840217e-16 -6.498464504941420243e-16 -3.129990746013708616e-16 6.574083861661692918e-16 0.000000000000000000e+00 0.000000000000000000e+00 0.000000000000000000e+00 0.000000000000000000e+00 -1.174190558007376750e-15 5.073969131443866363e-15 0.000000000000000000e+00 -1.085818694170686110e-15 -1.684307705981414228e-16 -6.498464504941420243e-16 -3.129990746013708616e-16 6.574083861661692918e-16 0.000000000000000000e+00 0.000000000000000000e+00 0.000000000000000000e+00 0.000000000000000000e+00 -1.833009250970875094e-15 5.180554807005320770e-15 0.000000000000000000e+00 -2.511133168927329486e-15 9.872169524079756802e-16
4.500000000000000000e+02 0.000000000000000000e+00 0.000000000000000000e+00 0.000000000000000000e+00 0.000000000000000000e+00 0.000000000000000000e+00 7.376604267489566017e-04 -9.122803876283660726e-03 -4.989921637984165437e-02 -1.189018009253958209e-02 -1.009034918415508374e-04 6.493254448647158006e-02 3.775583843176584520e-02 1.064045913591059322e-02 -3.228431750465910466e-01 1.200428028605366425e-02 5.655751097440779931e-04 2.923089017871413620e-01 6.255919316345506798e-02 5.818719947487125538e-02 2.375184117462292299e-01 1.262165768179874248e-01 -2.233550762295154479e-01 4.874804239062412864e-02 -1.513112546324272278e-01 1.986219886585656458e-01 -2.322207684304223863e-01 -6.318246896483377395e-02 1.705350653634366475e-03 1.196135489162972604e-01 -1.371563366330140823e-02 3.565845699742940453e-03 2.835531239576950108e-02 -2.235005503829382706e-02 5.244722465860040921e-03 4.545382546371838639e-02 6.711599732314516486e-04 5.771051488530996171e-03 -6.378940141355762643e-03 1.203895877525591393e-02 1.047791640032024428e-02 -3.873258725927467006e-02 5.359174951856256544e-03 1.417377206850462673e-02 -8.060998743330301253e-02 5.802507736568133373e-02 -1.197187609386029944e-01 -2.257418099762574237e-01 -1.051743253208631684e-01 3.861953342885644513e-01 -4.710720232501478671e-02 -7.321265424088797547e-01 2.004652682626909821e-01 -7.604077955074866058e-01 -6.244514486621551841e-01 2.439903115135953204e-01 -1.561851073435565285e+00 0.000000000000000000e+00 0.000000000000000000e+00 0.000000000000000000e+00 4.932237366458794259e-15 2.575779851286246625e-16 0.000000000000000000e+00 6.495423582364600990e-16 -1.586865112100343127e-15 0.000000000000000000e+00 2.063345518579362395e-15 -1.280438321145034032e-15 1.675915121098559331e-15 0.000000000000000000e+00 0.000000000000000000e+00 0.000000000000000000e+00 0.000000000000000000e+00 -1.080228636262026630e-15 -3.753284205101700888e-15 0.000000000000000000e+00 3.198692746097368840e-15 1.082391268522121071e-14 2.063345518579362395e-15 -1.280438321145034032e-15 1.675915121098559331e-15 0.000000000000000000e+00 3.112005851838528114e-15 -5.168291713223746256e-15 0.000000000000000000e+00 -1.164760961981859436e-15 -1.313221092759036233e-14 0.000000000000000000e+00 3.774686005870832761e-15 1.653766802969182354e-14 2.063345518579362395e-15 -1.280438321145034032e-15 1.675915121098559331e-15 0.000000000000000000e+00 0.000000000000000000e+00 0.000000000000000000e+00 0.000000000000000000e+00 -9.334085826818688981e-16 -1.067638569817718138e-14 0.000000000000000000e+00 5.053939298292196966e-15 1.459169298198205613e-14 2.063345518579362395e-15 -1.280438321145034032e-15 1.675915121098559331e-15 0.000000000000000000e+00 0.000000000000000000e+00 0.000000000000000000e+00 0.000000000000000000e+00 -5.215653626122446907e-15 -1.802405898136370054e-14 0.000000000000000000e+00 3.455323152291215470e-15 1.853787662320725878e-14 -1.439965980020390876e-02 5.754805302221144281e-02 3.646470882830931681e-01 1.984918472342594997e-01 9.226906769322053281e-02 -3.303595266084447535e-01 -1.066663480545693848e-01 -4.317977599573833425e-01 -2.073649519778717198e-01 -1.523324767115077638e-01 -6.361411919635676648e-01 -2.283584818963647345e-01 0.000000000000000000e+00 0.000000000000000000e+00 0.000000000000000000e+00 -3.722418333288785326e-15 -1.321218755425344755e-15 0.000000000000000000e+00 2.541369438436057044e-15 2.619222002271531607e-16 0.000000000000000000e+00 -1.320367303603762433e-15 2.184505292504911085e-16 8.297220732047927109e-16 0.000000000000000000e+00 0.000000000000000000e+00 0.000000000000000000e+00 0.000000000000000000e+00 -2.896723529288246420e-16 5.072196602062900933e-15 0.000000000000000000e+00 -3.213402346678765115e-16 -2.275937210901898135e-15 -1.320367303603762433e-15 2.184505292504911085e-16 8.297220732047927109e-16 0.000000000000000000e+00 4.184545186286510066e-16 3.933772388620224281e-15 0.000000000000000000e+00 9.529034053061122885e-16 4.470638026067765013e-15 0.000000000000000000e+00 2.956717496817519264e-16 4.945803233486220326e-16 -1.320367303603762433e-15 2.184505292504911085e-16 8.297220732047927109e-16 0.000000000000000000e+00 0.000000000000000000e+00 0.000000000000000000e+00 0.000000000000000000e+00 -1.317291838688237336e-15 4.751815116317460884e-15 0.000000000000000000e+00 -3.426306051505668218e-16 -4.774156821136335928e-17 -1.320367303603762433e-15 2.184505292504911085e-16 8.297220732047927109e-16 0.000000000000000000e+00 0.000000000000000000e+00 0.000000000000000000e+00 0.000000000000000000e+00 -1.752952203766336534e-15 3.749773836736078034e-15 0.000000000000000000e+00 -1.894960827619931489e-15 -5.390704243581418440e-17
